<?xml version="1.0" encoding="UTF-8" standalone="no"?>
<svg
   xmlns:dc="http://purl.org/dc/elements/1.1/"
   xmlns:cc="http://creativecommons.org/ns#"
   xmlns:rdf="http://www.w3.org/1999/02/22-rdf-syntax-ns#"
   xmlns:svg="http://www.w3.org/2000/svg"
   xmlns="http://www.w3.org/2000/svg"
   xmlns:sodipodi="http://sodipodi.sourceforge.net/DTD/sodipodi-0.dtd"
   xmlns:inkscape="http://www.inkscape.org/namespaces/inkscape"
   width="315.75"
   height="315.75"
   id="svg2"
   version="1.1"
   inkscape:version="0.91 r13725"
   sodipodi:docname="Anonymous_emblem.svg">
  <metadata
     id="metadata92">
    <rdf:RDF>
      <cc:Work
         rdf:about="">
        <dc:format>image/svg+xml</dc:format>
        <dc:type
           rdf:resource="http://purl.org/dc/dcmitype/StillImage" />
      </cc:Work>
    </rdf:RDF>
  </metadata>
  <defs
     id="defs90" />
  <sodipodi:namedview
     pagecolor="#ffffff"
     bordercolor="#666666"
     borderopacity="1"
     objecttolerance="10"
     gridtolerance="10"
     guidetolerance="10"
     inkscape:pageopacity="0"
     inkscape:pageshadow="2"
     inkscape:window-width="1366"
     inkscape:window-height="705"
     id="namedview88"
     showgrid="false"
     inkscape:zoom="2.1140421"
     inkscape:cx="216.09158"
     inkscape:cy="176.65108"
     inkscape:window-x="1272"
     inkscape:window-y="-8"
     inkscape:window-maximized="1"
     inkscape:current-layer="g4" />
  <g
     transform="translate(-217.125,-92.125)"
     id="g4">
    <g
       id="g74">
      <circle
         cy="222"
         cx="375"
         r="5.25"
         id="circle76" />
      <path
         d="M388.23,197.59c1.17-1.73,1.76-3.62,1.76-5.65,0-4.05-2.91-10.14-13.42-10.14-9.83,0-13.07,5.7-13.07,9.5,0,2.87,1.9,4.62,4.46,4.62,2.19,0,3.95-1.47,3.95-3.69,0-2.61-2.09-4.65-2.09-5.81,0-0.96,1.49-2.4,4.02-2.4,2.09,0,5.91,1.32,5.91,8.31,0,9.41-5.45,8.99-5.45,18.82v0.98h1.4c0.16-2.27,0.58-3.95,1.28-5.04,0.72-1.11,2.21-2.38,4.46-3.79,3.36-2.1,5.62-4,6.79-5.71z"
         id="path78" />
    </g>
    <g
       id="g80">
      <polygon
         fill="#fff"
         points="394,297,394,245,390,241.5,385.8,239.31,384.45,238.65,378.05,235.5,371.95,235.5,365.55,238.65,364.2,239.31,360,241.5,356,245,356,297"
         id="polygon82" />
      <path
         d="M380.63,296.84l-0.35-17.22c-0.17-3.27-0.24-6.53-0.51-9.79-0.71-4.63-2.83-8.94-3.26-13.62,0.55-0.67,1.15-1.28,1.77-1.89,2.65,1.28,3.05,3.86,5.36,5.84-0.6-2.36-2-4.42-2.92-6.66-1.17-2.1-1.89-4.61-4.04-6.02,1.4-0.82,2.93-1.37,4.38-2.08,2.54-1.16,5.29-2.21,7.33-4.14,0.04-0.15,0.04-0.27,0.03-0.39l1.13,0.67c0.4,1.19,0.9,2.33,1.3,3.52,0.17,0.5,0.25,1.02,0.25,1.54,0,0.97-0.28,1.95-0.79,2.79,0.27,1.77,1.16,3.43,1.76,5.12,1,2.53,1.25,5.26,1.38,7.95,0.11,0.67,0.16,1.37,0.16,2.04,0,12.69-8.42,26.57-12.98,32.34zm-24.24-32.34c0-0.67,0.05-1.37,0.16-2.04,0.13-2.69,0.38-5.42,1.38-7.95,0.6-1.69,1.49-3.35,1.76-5.12-0.51-0.84-0.79-1.82-0.79-2.79,0-0.52,0.08-1.04,0.25-1.54,0.4-1.19,0.9-2.33,1.3-3.52l1.13-0.67c-0.01,0.12-0.01,0.24,0.03,0.39,2.04,1.93,4.79,2.98,7.33,4.14,1.45,0.71,2.98,1.26,4.38,2.08-2.15,1.41-2.87,3.92-4.04,6.02-0.92,2.24-2.32,4.3-2.92,6.66,2.31-1.98,2.71-4.56,5.36-5.84,0.62,0.61,1.22,1.22,1.77,1.89-0.43,4.68-2.55,8.99-3.26,13.62-0.27,3.26-0.34,6.52-0.51,9.79l-0.35,17.22c-4.56-5.77-12.98-19.65-12.98-32.34zm60.14,91.7c4.06-2.61,8.38-4.81,12.42-7.45l4.77-3.06c2.4-1.38,4.29-3.38,6.45-5.06,0.4-2.37,0.62-4.75,1.07-7.11v-7.13c-0.34-1.19-0.08-2.43-0.34-3.63-0.24-3.81-0.51-7.65-1.02-11.44-0.96-4.99-0.78-10.09-1.73-15.08-0.28-1.76-1.28-3.28-1.8-4.97,0.57-0.23,1.14-0.48,1.73-0.7-0.71-2.13-1.91-2.14-1.91-3.15,0-1.22,1.37-2.47,2.05-3.56-0.71-0.74-1.71-1.1-2.65-1.48,0.01-0.55,0.03-1.11,0.03-1.66,0-0.67-0.03-1.33-0.15-1.99-0.62-5.15-1.49-10.27-1.95-15.44-0.11-2.76-1.92-5.5-4.67-6.4-6.18-0.21-12.3-1.45-18.29-2.89-4.05-1.02-8.32-2.29-11.17-5.44-1.63-2.12-4.05-3.45-6.14-5.09-2.34-1.67-4.58-3.71-7.52-4.3,0.02,0.05,0.06,0.09,0.09,0.14l0.61,0.68c0.28,0.23,0.55,0.48,0.81,0.73-0.3,0.46-0.66,0.86-1,1.29-5.65-2.98-7.16-3.01-8.91-3.01h-4.62c-1.75,0-3.26,0.03-8.91,3.01-0.34-0.43-0.7-0.83-1-1.29,0.26-0.25,0.53-0.5,0.81-0.73l0.61-0.68c0.03-0.05,0.07-0.09,0.09-0.14-2.94,0.59-5.18,2.63-7.52,4.3-2.09,1.64-4.51,2.97-6.14,5.09-2.85,3.15-7.12,4.42-11.17,5.44-5.99,1.44-12.11,2.68-18.29,2.89-2.75,0.9-4.56,3.64-4.67,6.4-0.46,5.17-1.33,10.29-1.95,15.44-0.12,0.66-0.15,1.32-0.15,1.99,0,0.55,0.02,1.11,0.03,1.66-0.94,0.38-1.94,0.74-2.65,1.48,0.68,1.09,2.05,2.34,2.05,3.56,0,1.01-1.2,1.02-1.91,3.15,0.59,0.22,1.16,0.47,1.73,0.7-0.52,1.69-1.52,3.21-1.8,4.97-0.95,4.99-0.77,10.09-1.73,15.08-0.51,3.79-0.78,7.63-1.02,11.44-0.26,1.2,0,2.44-0.34,3.63v7.13c0.45,2.36,0.67,4.74,1.07,7.11,2.16,1.68,4.05,3.68,6.45,5.06l4.77,3.06c4.04,2.64,8.36,4.84,12.42,7.45l-3.02,41.24c21.01,3.96,30.95,6.27,39.91,7.2,1.56,0.16,3.09,0.28,4.64,0.36,1.55-0.08,3.08-0.2,4.64-0.36,8.96-0.93,18.9-3.24,39.91-7.2l-3.02-41.24z"
         id="path84" />
      <path
         d="M371.95,235c-3.79,1.22-5.5,2.59-6.4,3.65,2.32-0.73,4.49-1.85,6.89-2.35,0.86-0.17,1.69-0.26,2.56-0.28,0.87,0.02,1.7,0.11,2.56,0.28,2.4,0.5,4.57,1.62,6.89,2.35-0.9-1.06-2.61-2.43-6.4-3.65h-6.1z"
         id="path86" />
    </g>
  </g>
</svg>
